Coordinates
version=1
nRows=14
nColumns=24
inDegrees=yes

Units are S.I. units (second, meters, Newtons, ...)
Angles are in degrees.

endheader
time	pelvis_tilt	pelvis_list	pelvis_rotation	pelvis_tx	pelvis_ty	pelvis_tz	hip_flexion_r	hip_adduction_r	hip_rotation_r	knee_angle_r	ankle_angle_r	subtalar_angle_r	mtp_angle_r	hip_flexion_l	hip_adduction_l	hip_rotation_l	knee_angle_l	ankle_angle_l	subtalar_angle_l	mtp_angle_l	lumbar_extension	lumbar_bending	lumbar_rotation
      3.05000000	     -9.06950928	     -6.33249255	      8.16132732	     -1.68364544	     -0.03367208	      0.67554765	     30.44789329	      2.83496695	      0.62583674	    -32.84065912	      2.80263764	     -2.42212246	     13.65681175	     12.18342553	     -4.97920386	      5.34261504	    -56.26006523	    -32.55107268	      8.38249038	     38.71760643	      9.61939055	     13.44507116	    -10.06763968
      3.05500000	     -8.93780727	     -6.33967085	      8.06411556	     -1.67642968	     -0.03242914	      0.67576869	     29.67120337	      3.01948986	      0.74132077	    -32.52427290	      3.13012906	     -2.46060785	     13.65134918	     13.12527844	     -4.90833933	      5.17336476	    -57.61258838	    -30.98495843	      9.22093693	     39.64316138	      9.44805851	     13.51415918	     -9.74916529
      3.06000000	     -8.83610769	     -6.38343701	      8.00827585	     -1.66925324	     -0.03120427	      0.67601322	     28.92100485	      3.21714054	      0.77491936	    -32.18056618	      3.40243321	     -2.59820285	     13.54342083	     14.12852682	     -4.88722585	      5.00815848	    -58.91177900	    -29.48835520	      9.84028507	     40.44346796	      9.32642812	     13.59298113	     -9.48722329
      3.06500000	     -8.74191285	     -6.40617392	      7.94379094	     -1.66202323	     -0.02993174	      0.67622203	     28.14028149	      3.39807950	      0.88797989	    -31.78183673	      3.69351762	     -2.66098101	     13.46285856	     15.11687278	     -4.84052595	      4.82135383	    -60.12094530	    -28.08704418	     10.16556529	     40.92001513	      9.22480182	     13.64997442	     -9.21819955
      3.07000000	     -8.64082576	     -6.45650733	      7.87058539	     -1.65486343	     -0.02869882	      0.67650421	     27.35772975	      3.60667342	      0.95565093	    -31.37210298	      3.96484987	     -2.73979201	     13.36924872	     16.12165053	     -4.85621051	      4.57593706	    -61.29163509	    -26.86486504	     10.17096991	     41.14126359	      9.10838189	     13.73147250	     -8.96422980
      3.07500000	     -8.57163913	     -6.50564582	      7.83793834	     -1.64769388	     -0.02748722	      0.67673207	     26.58256139	      3.81006212	      1.07604426	    -30.93256155	      4.21858728	     -2.94194554	     12.86274902	     17.17818248	     -4.83808556	      4.37896820	    -62.49058528	    -25.40677899	     10.05065094	     39.97925672	      9.04859269	     13.78696700	     -8.76037620
      3.08000000	     -8.50375097	     -6.58394487	      7.78941963	     -1.64042150	     -0.02623160	      0.67698068	     25.76617658	      4.04807324	      1.20779700	    -30.39900434	      4.37495751	     -3.21368449	     12.63665654	     18.20155870	     -4.87008705	      4.16108921	    -63.50674807	    -24.54359715	      9.44251791	     39.61720825	      9.01470473	     13.87652449	     -8.51106377
      3.08500000	     -8.43466745	     -6.62907955	      7.71074842	     -1.63322795	     -0.02510054	      0.67726861	     24.96475089	      4.25465819	      1.35749038	    -29.91097066	      4.66480008	     -3.32154326	     12.28186496	     19.23471173	     -4.88658931	      3.87346597	    -64.56045807	    -23.45523566	      8.79403950	     38.02474905	      8.95621267	     13.92968541	     -8.30382212
      3.09000000	     -8.36838823	     -6.69212816	      7.64382536	     -1.62606425	     -0.02396612	      0.67752616	     24.15189758	      4.47197788	      1.49876714	    -29.37925741	      4.86199317	     -3.49639066	     11.97519444	     20.25927982	     -4.91570859	      3.61165342	    -65.49670154	    -22.67422897	      7.85436570	     36.70025802	      8.90384997	     14.00133613	     -8.06841929
      3.09500000	     -8.31440986	     -6.74712554	      7.57122155	     -1.61882927	     -0.02284740	      0.67778524	     23.32180964	      4.68633017	      1.69113982	    -28.80082994	      5.04646707	     -3.69786787	     11.68390975	     21.27031514	     -4.94026722	      3.34104369	    -66.33385797	    -22.01949743	      6.77532037	     35.24065082	      8.88061913	     14.05976012	     -7.84299688
      3.10000000	     -8.26257157	     -6.79330309	      7.49100375	     -1.61162439	     -0.02177601	      0.67804661	     22.49089810	      4.89116556	      1.89843340	    -28.21552749	      5.22260711	     -3.89499224	     11.37308524	     22.26805273	     -4.96001760	      3.06024590	    -67.09136742	    -21.40838338	      5.62971645	     33.62990394	      8.85085379	     14.10915849	     -7.60651853
      3.10500000	     -8.21306909	     -6.81991478	      7.40165937	     -1.60443692	     -0.02074420	      0.67831676	     21.65744435	      5.07708341	      2.12457829	    -27.62465693	      5.38979795	     -4.10939533	     11.03583551	     23.24478381	     -4.96581212	      2.76570751	    -67.75399889	    -20.83395221	      4.46650243	     31.97797827	      8.81707788	     14.13722833	     -7.36202822
      3.11000000	     -8.16991763	     -6.82452708	      7.29991441	     -1.59726188	     -0.01975675	      0.67859611	     20.82548463	      5.23960594	      2.37020397	    -27.02810201	      5.55604386	     -4.32637790	     10.66909895	     24.20056436	     -4.95765704	      2.45227819	    -68.32039918	    -20.24020607	      3.35459278	     30.28694754	      8.77884195	     14.14228071	     -7.10449920
      3.11500000	     -8.13220387	     -6.80030357	      7.19093982	     -1.59009775	     -0.01880889	      0.67890153	     19.99474479	      5.37210638	      2.64241147	    -26.43036336	      5.71254755	     -4.55129880	     10.29255992	     25.13238388	     -4.92507354	      2.13522488	    -68.78250806	    -19.65269480	      2.34647958	     28.69196328	      8.73873853	     14.11119671	     -6.83425319
